<svg width="32" height="32" viewBox="0 0 32 32" fill="none" xmlns="http://www.w3.org/2000/svg">
<path d="M21.7868 21.5561C22.8939 21.4434 23.7338 20.5051 23.6956 19.3791C23.6575 18.2531 22.703 17.3523 21.5577 17.3523H21.4814C20.2978 17.3898 19.3817 18.3657 19.4199 19.5292C19.4581 20.0922 19.6871 20.5801 20.0307 20.9179C18.7327 23.4327 16.7475 25.2718 13.7698 26.8107C11.7464 27.8616 9.6468 28.237 7.54715 27.9743C5.82918 27.7491 4.49301 26.9985 3.65301 25.7598C2.43144 23.9206 2.31695 21.9313 3.34773 19.9421C4.07312 18.5158 5.21828 17.4648 5.94367 16.9394C5.79098 16.4515 5.56187 15.6257 5.44738 15.0253C-0.0882044 18.9663 0.484491 24.296 2.16426 26.8107C3.42402 28.6875 5.98187 29.851 8.80691 29.851C9.57039 29.851 10.3339 29.7759 11.0975 29.5883C15.9841 28.6499 19.6872 25.7973 21.7868 21.5561V21.5561ZM28.5059 16.9019C25.6045 13.5614 21.3287 11.7223 16.4421 11.7223H15.8314C15.4878 11.0467 14.7624 10.5962 13.9607 10.5962H13.8843C12.7009 10.6338 11.7848 11.6096 11.8229 12.7733C11.8611 13.8992 12.8154 14.8 13.9607 14.8H14.037C14.8769 14.7625 15.6023 14.237 15.9077 13.5238H16.5948C19.4963 13.5238 22.2449 14.3496 24.7265 15.9635C26.6352 17.2022 28.0096 18.8161 28.7731 20.7678C29.4221 22.3442 29.3839 23.8831 28.6967 25.1968C27.6278 27.1861 25.8336 28.2746 23.4666 28.2746C21.9395 28.2746 20.4889 27.8241 19.7253 27.4863C19.3054 27.8616 18.5418 28.4621 18.0073 28.8376C19.649 29.5882 21.3287 30.0011 22.9321 30.0011C26.597 30.0011 29.3076 28.0118 30.3384 26.0225C31.4454 23.8455 31.369 20.0922 28.5059 16.9019V16.9019ZM9.1123 22.194C9.15051 23.3201 10.1049 24.2208 11.2502 24.2208H11.3266C12.51 24.1833 13.4262 23.2074 13.388 22.0439C13.3499 20.9178 12.3954 20.0171 11.2502 20.0171H11.1739C11.0975 20.0171 10.9829 20.0171 10.9067 20.0545C9.3414 17.5023 8.69242 14.7249 8.92152 11.7222C9.0741 9.47018 9.83769 7.5184 11.1739 5.90442C12.2809 4.51568 14.4188 3.84008 15.8696 3.80264C19.9162 3.72752 21.634 8.68191 21.7486 10.6712C22.2449 10.7838 23.0848 11.0466 23.6575 11.2343C23.1993 5.15394 19.3817 2.0011 15.7169 2.0011C12.2809 2.0011 9.1123 4.44079 7.85242 8.04399C6.09637 12.8483 7.24164 17.4648 9.37949 21.1056C9.18871 21.3683 9.0741 21.7812 9.1123 22.1941V22.194Z" fill="#764ABC"/>
</svg>
