<svg width="80" height="80" viewBox="0 0 80 80" fill="none" xmlns="http://www.w3.org/2000/svg">
<path fill-rule="evenodd" clip-rule="evenodd" d="M40 40C40 33.7868 45.0368 28.75 51.25 28.75C57.4632 28.75 62.5 33.7868 62.5 40C62.5 46.2132 57.4632 51.25 51.25 51.25C45.0368 51.25 40 46.2132 40 40Z" fill="#1ABCFE"/>
<path fill-rule="evenodd" clip-rule="evenodd" d="M17.5 62.5C17.5 56.2868 22.5368 51.25 28.75 51.25H40V62.5C40 68.7132 34.9632 73.75 28.75 73.75C22.5368 73.75 17.5 68.7132 17.5 62.5Z" fill="#0ACF83"/>
<path fill-rule="evenodd" clip-rule="evenodd" d="M40 6.25V28.75H51.25C57.4632 28.75 62.5 23.7132 62.5 17.5C62.5 11.2868 57.4632 6.25 51.25 6.25H40Z" fill="#FF7262"/>
<path fill-rule="evenodd" clip-rule="evenodd" d="M17.5 17.5C17.5 23.7132 22.5368 28.75 28.75 28.75H40V6.25H28.75C22.5368 6.25 17.5 11.2868 17.5 17.5Z" fill="#F24E1E"/>
<path fill-rule="evenodd" clip-rule="evenodd" d="M17.5 40C17.5 46.2132 22.5368 51.25 28.75 51.25H40V28.75H28.75C22.5368 28.75 17.5 33.7868 17.5 40Z" fill="#A259FF"/>
</svg>
