<svg width="80" height="80" viewBox="0 0 80 80" fill="none" xmlns="http://www.w3.org/2000/svg">
<path d="M6.4634 43.533C4.5122 41.5818 4.5122 38.4182 6.4634 36.467L36.467 6.4634C38.4182 4.5122 41.5818 4.5122 43.533 6.4634L73.5366 36.467C75.4878 38.4182 75.4878 41.5818 73.5366 43.533L43.533 73.5366C41.5818 75.4878 38.4182 75.4878 36.467 73.5366L6.4634 43.533Z" fill="#EE513B"/>
<path d="M30.3733 12.6541L27.335 15.6925L35.1822 23.5397C34.8648 24.2208 34.6876 24.9803 34.6876 25.7813C34.6876 28.0552 36.1163 29.9955 38.1251 30.7534V49.9497C36.1163 50.7076 34.6876 52.6479 34.6876 54.9219C34.6876 57.8559 37.0661 60.2344 40.0001 60.2344C42.9341 60.2344 45.3126 57.8559 45.3126 54.9219C45.3126 52.8603 44.1382 51.0729 42.4219 50.1923V30.7794L49.9233 38.2808C49.6213 38.948 49.4532 39.6887 49.4532 40.4688C49.4532 43.4028 51.8317 45.7813 54.7657 45.7813C57.6997 45.7813 60.0782 43.4028 60.0782 40.4688C60.0782 37.5347 57.6997 35.1563 54.7657 35.1563C54.1955 35.1563 53.6464 35.2461 53.1315 35.4123L45.0753 27.3561C45.2295 26.8585 45.3126 26.3296 45.3126 25.7813C45.3126 22.8472 42.9341 20.4688 40.0001 20.4688C39.4518 20.4688 38.9229 20.5518 38.4253 20.7061L30.3733 12.6541Z" fill="white"/>
</svg>
