<svg width="80" height="80" viewBox="0 0 80 80" fill="none" xmlns="http://www.w3.org/2000/svg">
<path fill-rule="evenodd" clip-rule="evenodd" d="M40 0C17.908 0 0 17.936 0 40.068C0 57.768 11.46 72.788 27.356 78.084C29.356 78.452 30.084 77.216 30.084 76.152C30.084 75.204 30.052 72.68 30.032 69.34C18.904 71.76 16.556 63.968 16.556 63.968C14.74 59.336 12.116 58.104 12.116 58.104C8.484 55.624 12.392 55.672 12.392 55.672C16.404 55.952 18.516 59.8 18.516 59.8C22.084 65.92 27.88 64.152 30.156 63.128C30.524 60.54 31.556 58.776 32.7 57.776C23.82 56.764 14.48 53.324 14.48 37.972C14.48 33.6 16.04 30.02 18.596 27.22C18.184 26.208 16.812 22.132 18.988 16.62C18.988 16.62 22.348 15.54 29.988 20.724C33.2511 19.8341 36.6178 19.3808 40 19.376C43.4 19.392 46.82 19.836 50.016 20.724C57.652 15.54 61.004 16.616 61.004 16.616C63.188 22.132 61.812 26.208 61.404 27.22C63.964 30.02 65.516 33.6 65.516 37.972C65.516 53.364 56.16 56.752 47.252 57.744C48.688 58.98 49.964 61.424 49.964 65.164C49.964 70.516 49.916 74.84 49.916 76.152C49.916 77.224 50.636 78.472 52.668 78.08C60.6332 75.4084 67.5574 70.3012 72.4619 63.4802C77.3665 56.6592 80.0034 48.4693 80 40.068C80 17.936 62.088 0 40 0Z" fill="black"/>
</svg>
