<svg width="80" height="80" viewBox="0 0 80 80" fill="none" xmlns="http://www.w3.org/2000/svg">
<rect x="5" y="5" width="70" height="70" fill="#FFCA28"/>
<path d="M47.5 63.2191L52.6538 59.8089C53.0577 61.0778 55.6154 64.0915 58.8462 64.0915C62.0769 64.0915 63.5769 62.3269 63.5769 61.1571C63.5769 57.9691 60.2779 56.8451 58.6934 56.3053C58.4351 56.2172 58.2224 56.1448 58.0769 56.0814C58.0024 56.0489 57.8895 56.0058 57.7447 55.9505C55.9824 55.2772 49.4808 52.7932 49.4808 45.5929C49.4808 37.662 57.1346 36.75 58.8654 36.75C59.9977 36.75 65.4423 36.8888 68.1538 41.9844L63.1538 45.4739C62.0577 43.2533 60.2365 42.5197 59.1154 42.5197C56.3462 42.5197 55.7692 44.5499 55.7692 45.4739C55.7692 48.067 58.7779 49.2292 61.3183 50.2105C61.983 50.4673 62.6156 50.7116 63.1538 50.966C65.9231 52.2746 70 54.4159 70 61.1571C70 64.5336 67.168 70 60.0385 70C50.4615 70 47.9231 64.2502 47.5 63.2191Z" fill="#3E3E3E"/>
<path d="M22.5 63.8964L27.8717 60.4878C28.2926 61.7561 29.9282 64.0945 32.3013 64.0945C34.6745 64.0945 35.8891 61.657 35.8891 60.4878V37.5H42.4955V60.4878C42.6024 63.6586 40.8439 70 33.083 70C25.9475 70 22.981 65.7592 22.5 63.8964Z" fill="#3E3E3E"/>
</svg>
