<svg width="80" height="80" viewBox="0 0 80 80" fill="none" xmlns="http://www.w3.org/2000/svg">
<path d="M42.9312 5.7468C41.1567 4.74882 38.8433 4.75331 37.0673 5.7468C28.1722 10.6557 19.277 15.566 10.3804 20.4726C8.64923 21.3834 7.4816 23.2425 7.50022 25.1721V54.832C7.48772 56.7992 8.71556 58.6763 10.4914 59.5745C13.0468 60.934 15.5295 62.4316 18.1311 63.7006C21.1363 65.1772 24.8961 65.5038 27.938 63.9638C30.4072 62.6874 31.5039 59.8488 31.5008 57.24C31.5207 47.4515 31.5039 37.6626 31.5085 27.8741C31.5671 27.439 31.2406 26.9741 30.7661 26.9846C29.6293 26.9666 28.4911 26.9741 27.3543 26.9816C26.9247 26.9409 26.5055 27.2977 26.5379 27.7295C26.5226 37.455 26.541 47.1834 26.5288 56.9104C26.5535 58.2559 25.6446 59.5491 24.3478 60.0036C21.353 61.0532 12.8049 55.5031 12.8049 55.5031C12.4912 55.3578 12.292 55.0175 12.3228 54.6796C12.3228 44.8941 12.3243 35.1082 12.3228 25.3242C12.2797 24.9298 12.5228 24.5745 12.885 24.4134C21.7508 19.5335 30.612 14.6413 39.4778 9.75841C39.7856 9.55289 40.215 9.5535 40.5222 9.7599C49.388 14.6413 58.2507 19.529 67.118 24.4092C67.4816 24.57 67.7142 24.9313 67.6772 25.3242C67.6757 35.1082 67.6803 44.8941 67.6742 54.6781C67.7005 55.0244 67.5216 55.36 67.1981 55.5121C58.4151 60.3655 49.5322 65.0624 40.8287 70.0569C40.4489 70.2748 40.0188 70.5216 39.5934 70.2815C37.3045 69.0156 35.0435 67.7002 32.7623 66.422C32.5144 66.2672 32.1985 66.2009 31.9399 66.3739C30.9169 66.9129 29.9551 67.3495 28.7806 67.8144C27.1309 68.4674 27.3946 68.7345 28.8821 69.6012C31.5501 71.111 34.2223 72.6148 36.89 74.1261C38.6462 75.2221 41.0059 75.3001 42.8187 74.2872C51.7154 69.3845 60.6089 64.4759 69.5071 59.5733C71.2783 58.67 72.5123 56.8005 72.4998 54.8317V25.1721C72.5169 23.2816 71.3939 21.4557 69.715 20.5315C60.7891 15.5987 51.8587 10.6766 42.9312 5.7468Z" fill="#8CC84B"/>
<path d="M56.3546 28.0156C52.8629 26.1476 48.709 26.0481 44.8288 26.2922C42.0256 26.5691 39.0773 27.3427 37.0349 29.3521C34.9402 31.3723 34.4843 34.6342 35.4792 37.2713C36.1923 39.1346 37.987 40.3465 39.8429 40.9875C42.2338 41.8314 44.7447 42.0924 47.2565 42.3535C49.5475 42.5916 51.8393 42.8297 54.0413 43.5104C54.9408 43.8086 55.9883 44.2646 56.2638 45.2431C56.5182 46.4021 56.2393 47.7494 55.2982 48.5546C52.3091 50.9205 43.9947 50.558 41.0414 48.696C39.8475 47.9027 39.3329 46.4984 39.1237 45.1604C39.1005 44.7433 38.7648 44.3608 38.312 44.3925C37.1783 44.379 36.0446 44.382 34.9109 44.391C34.5152 44.3578 34.1039 44.6393 34.0823 45.0429C33.8494 51.1721 39.4784 53.8441 44.7596 54.4325C47.7771 54.72 50.8606 54.7035 53.8318 54.0561C56.0653 53.5475 58.3047 52.6111 59.8422 50.8906C61.7382 48.8 62.1109 45.6871 61.2607 43.0829C60.6106 41.1398 58.7529 39.8933 56.8539 39.2521C54.2715 38.3665 51.2109 37.8906 48.872 37.6678C45.4722 37.344 41.4322 37.4763 40.47 35.2422C40.0863 34.0725 40.4128 32.62 41.4879 31.9005C44.3321 29.9712 50.1206 30.2274 53.0663 31.6687C54.4189 32.346 55.2026 33.7369 55.526 35.1413C55.586 35.5539 55.8635 35.9842 56.3411 35.9662C57.4669 35.9887 58.593 35.9722 59.7188 35.9737C60.1055 36.0009 60.529 35.7825 60.6045 35.3866C60.5568 32.4515 59.058 29.4471 56.3546 28.0156Z" fill="#8CC84B"/>
</svg>
