<svg width="80" height="80" viewBox="0 0 80 80" fill="none" xmlns="http://www.w3.org/2000/svg">
<path d="M54.4671 53.8902C57.2348 53.6085 59.3345 51.2628 59.239 48.4477C59.1437 45.6328 56.7575 43.3807 53.8943 43.3807H53.7036C50.7446 43.4746 48.4542 45.9142 48.5497 48.823C48.6452 50.2305 49.2177 51.4503 50.0767 52.2948C46.8317 58.5818 41.8688 63.1796 34.4245 67.0267C29.3661 69.6541 24.117 70.5925 18.8679 69.9358C14.5729 69.3727 11.2325 67.4962 9.13252 64.3994C6.07861 59.8016 5.79238 54.8283 8.36933 49.8552C10.1828 46.2895 13.0457 43.6621 14.8592 42.3484C14.4774 41.1286 13.9047 39.0644 13.6185 37.5632C-0.220511 47.4157 1.21123 60.74 5.41064 67.0267C8.56006 71.7187 14.9547 74.6275 22.0173 74.6275C23.926 74.6275 25.8347 74.4397 27.7436 73.9708C39.9602 71.6248 49.218 64.4933 54.4671 53.8902V53.8902ZM71.2647 42.2548C64.0111 33.9035 53.3219 29.3058 41.1054 29.3058H39.5784C38.7194 27.6168 36.906 26.4906 34.9018 26.4906H34.7107C31.7523 26.5845 29.4619 29.0241 29.5571 31.9331C29.6526 34.748 32.0386 37.0001 34.9018 37.0001H35.0925C37.1922 36.9062 39.0057 35.5925 39.7691 33.8096H41.4871C48.7407 33.8096 55.6123 35.8739 61.8162 39.9089C66.5881 43.0054 70.024 47.0404 71.9327 51.9195C73.5552 55.8606 73.4597 59.7077 71.7417 62.9921C69.0695 67.9651 64.5839 70.6864 58.6665 70.6864C54.8488 70.6864 51.2222 69.5602 49.3132 68.7157C48.2635 69.6541 46.3545 71.1553 45.0183 72.094C49.1225 73.9705 53.3219 75.0027 57.3303 75.0027C66.4926 75.0027 73.2689 70.0294 75.8459 65.0564C78.6136 59.6138 78.4226 50.2305 71.2647 42.2548V42.2548ZM22.7808 55.485C22.8763 58.3001 25.2622 60.5519 28.1254 60.5519H28.3164C31.2751 60.4583 33.5655 58.0185 33.47 55.1097C33.3748 52.2945 30.9886 50.0427 28.1254 50.0427H27.9347C27.7436 50.0427 27.4571 50.0427 27.2667 50.1364C23.3535 43.7557 21.7311 36.8123 22.3038 29.3055C22.6852 23.6754 24.5942 18.796 27.9347 14.7611C30.7023 11.2892 36.047 9.60021 39.6739 9.5066C49.7904 9.31881 54.0851 21.7048 54.3716 26.6781C55.6123 26.9595 57.712 27.6165 59.1437 28.0857C57.9982 12.8849 48.4542 5.00275 39.2922 5.00275C30.7023 5.00275 22.7808 11.102 19.6311 20.11C15.2409 32.1206 18.1041 43.6621 23.4487 52.764C22.9718 53.4207 22.6852 54.453 22.7808 55.4853V55.485Z" fill="#764ABC"/>
</svg>
