<svg width="80" height="60" viewBox="0 0 80 60" fill="none" xmlns="http://www.w3.org/2000/svg">
<g clip-path="url(#clip0_704_11163)">
<path d="M68.8426 34.4861C66.0532 34.5007 63.629 35.1729 61.599 36.1666C60.8542 34.6907 60.1095 33.3756 59.978 32.4111C59.832 31.2859 59.6567 30.5991 59.832 29.2548C60.0072 27.9104 60.7958 25.9961 60.7812 25.85C60.7666 25.7039 60.606 25.0171 58.9996 25.0024C57.3931 24.9878 56.0058 25.3093 55.8451 25.7331C55.6845 26.1569 55.3778 27.1213 55.1733 28.115C54.8959 29.5762 51.9605 34.793 50.281 37.5256C49.7407 36.4588 49.2734 35.5236 49.1712 34.7784C49.0251 33.6532 48.8499 32.9664 49.0251 31.622C49.2004 30.2777 49.989 28.3634 49.9744 28.2173C49.9598 28.0711 49.7991 27.3843 48.1927 27.3697C46.5863 27.3551 45.1989 27.6766 45.0383 28.1004C44.8776 28.5241 44.7024 29.5178 44.3665 30.4822C44.0306 31.4467 40.1314 40.1559 39.1091 42.4062C38.5833 43.5607 38.1306 44.4813 37.8093 45.1096C37.8093 45.1096 37.7947 45.1534 37.7509 45.2265C37.4735 45.7672 37.3128 46.0594 37.3128 46.0594C37.3128 46.0594 37.3128 46.0594 37.3128 46.074C37.0938 46.4686 36.8601 46.8339 36.7433 46.8339C36.6556 46.8339 36.495 45.7818 36.7725 44.3497C37.3566 41.3249 38.744 36.6196 38.7294 36.4588C38.7294 36.3712 38.9923 35.5529 37.8239 35.1291C36.6848 34.7053 36.2759 35.4067 36.1737 35.4067C36.0715 35.4067 35.9985 35.6551 35.9985 35.6551C35.9985 35.6551 37.269 30.3653 33.5742 30.3653C31.2668 30.3653 28.0832 32.8933 26.5059 35.1729C25.5129 35.7136 23.3953 36.868 21.1317 38.1101C20.2701 38.5923 19.3793 39.0745 18.5468 39.5275C18.4884 39.4691 18.43 39.396 18.3716 39.3376C13.9028 34.5592 5.63702 31.1836 5.98751 24.7686C6.11894 22.4306 6.92216 16.2932 21.8619 8.84073C34.1584 2.77643 43.943 4.4569 45.637 8.18316C48.0613 13.5022 40.3942 23.3804 27.6889 24.8125C22.8404 25.3532 20.2993 23.4827 19.6567 22.7813C18.985 22.0507 18.8827 22.0068 18.6345 22.153C18.2256 22.3721 18.4884 23.0297 18.6345 23.4097C19.0142 24.4033 20.5768 26.1569 23.2201 27.019C25.5567 27.7789 31.2376 28.2026 38.116 25.5431C45.8123 22.5621 51.8291 14.2767 50.062 7.33562C48.2949 0.292264 36.6118 -2.03116 25.5567 1.89967C18.985 4.23771 11.8583 7.92013 6.73231 12.7131C0.642493 18.4121 -0.321362 23.3658 0.0729421 25.4408C1.48952 32.8057 11.6392 37.5986 15.6991 41.1495C15.4946 41.2664 15.3048 41.3687 15.1441 41.4564C13.1142 42.4647 5.37415 46.5124 3.44644 50.794C1.25586 55.6454 3.79693 59.1232 5.47637 59.5908C10.69 61.0375 16.0496 58.4364 18.9265 54.1403C21.8035 49.8441 21.453 44.2621 20.1241 41.7048C20.1095 41.6756 20.0948 41.6464 20.0656 41.6171C20.5914 41.3103 21.1317 40.9888 21.6575 40.6819C22.6943 40.0682 23.7166 39.4983 24.5928 39.0307C24.0963 40.3897 23.7312 42.0117 23.556 44.3497C23.3369 47.0969 24.4614 50.6624 25.9364 52.0653C26.5936 52.679 27.3676 52.6936 27.8641 52.6936C29.5874 52.6936 30.3614 51.2616 31.223 49.5665C32.2745 47.4915 33.2237 45.0804 33.2237 45.0804C33.2237 45.0804 32.0408 51.5977 35.2537 51.5977C36.422 51.5977 37.6049 50.0779 38.1306 49.3035C38.1306 49.3181 38.1306 49.3181 38.1306 49.3181C38.1306 49.3181 38.1598 49.2742 38.2183 49.1719C38.3351 48.982 38.4081 48.8651 38.4081 48.8651C38.4081 48.8651 38.4081 48.8505 38.4081 48.8359C38.8754 48.0175 39.9269 46.1617 41.4895 43.0784C43.5049 39.1038 45.4472 34.1354 45.4472 34.1354C45.4472 34.1354 45.6224 35.3483 46.2212 37.3648C46.5717 38.5485 47.3019 39.849 47.886 41.1057C47.4187 41.7633 47.1266 42.1286 47.1266 42.1286C47.1266 42.1286 47.1266 42.1286 47.1412 42.1432C46.7615 42.64 46.3526 43.1807 45.8999 43.7068C44.3081 45.6064 42.4096 47.7837 42.1467 48.4121C41.84 49.1573 41.913 49.698 42.4972 50.1364C42.9207 50.4579 43.6801 50.5017 44.4541 50.4579C45.8853 50.3556 46.8929 50.0049 47.3895 49.7857C48.1635 49.508 49.0689 49.0843 49.9159 48.4559C51.4786 47.3015 52.4278 45.6503 52.3402 43.473C52.2964 42.2747 51.9021 41.0765 51.4201 39.9513C51.5662 39.7467 51.6976 39.5421 51.8437 39.3376C54.3117 35.7282 56.2248 31.7682 56.2248 31.7682C56.2248 31.7682 56.4001 32.981 56.9988 34.9976C57.2909 36.0205 57.8897 37.131 58.4154 38.2124C56.0934 40.0974 54.6622 42.2893 54.1511 43.7214C53.231 46.3809 53.9466 47.5792 55.3048 47.8568C55.9181 47.9883 56.7944 47.6961 57.4369 47.4184C58.2548 47.1554 59.2186 46.7024 60.1387 46.0302C61.7013 44.8758 63.2055 43.2684 63.1178 41.0911C63.074 40.0974 62.8112 39.1184 62.4461 38.1685C64.4176 37.3502 66.9587 36.8972 70.2007 37.2772C77.1522 38.0955 78.5249 42.4355 78.2621 44.2621C77.9992 46.0887 76.5388 47.0823 76.0569 47.3892C75.575 47.6961 75.4143 47.7984 75.4581 48.0175C75.5165 48.339 75.7502 48.3244 76.1591 48.266C76.7287 48.1637 79.8101 46.7901 79.9415 43.4291C80.1606 39.133 76.0715 34.4423 68.8426 34.4861ZM15.2172 52.5767C12.9097 55.0901 9.69689 56.0399 8.30952 55.2362C6.81993 54.3741 7.40408 50.6625 10.2372 48.0029C11.9605 46.3809 14.1803 44.8758 15.6553 43.9552C15.9912 43.7506 16.4877 43.4584 17.0865 43.093C17.1887 43.0346 17.2471 43.0054 17.2471 43.0054C17.3639 42.9323 17.4808 42.8592 17.5976 42.7862C18.6345 46.5855 17.6414 49.9318 15.2172 52.5767ZM32.0116 41.1495C31.2084 43.1077 29.5289 48.1198 28.5067 47.8422C27.6304 47.6084 27.0901 43.8091 28.3314 40.0536C28.9594 38.1685 30.2883 35.9182 31.0624 35.0414C32.3183 33.6386 33.7057 33.171 34.0415 33.7409C34.4651 34.4861 32.5081 39.9221 32.0116 41.1495ZM45.8707 47.7837C45.5348 47.9591 45.2135 48.076 45.0675 47.9883C44.9652 47.9299 45.2135 47.6961 45.2135 47.6961C45.2135 47.6961 46.9514 45.8256 47.6377 44.9781C48.0321 44.4813 48.4994 43.8967 48.9959 43.2392C48.9959 43.2976 48.9959 43.3707 48.9959 43.4291C48.9959 45.6649 46.8345 47.17 45.8707 47.7837ZM56.5607 45.3434C56.3124 45.1681 56.3563 44.5835 57.1887 42.7569C57.51 42.0409 58.2694 40.8427 59.5691 39.6883C59.7151 40.1559 59.8174 40.6089 59.8028 41.0326C59.7882 43.8529 57.7728 44.905 56.5607 45.3434Z" fill="#CD6799"/>
</g>
<defs>
<clipPath id="clip0_704_11163">
<rect width="80" height="60" fill="white"/>
</clipPath>
</defs>
</svg>
