<svg width="67" height="80" viewBox="0 0 67 80" fill="none" xmlns="http://www.w3.org/2000/svg">
<g clip-path="url(#clip0_704_11164)">
<path d="M62.6969 10.5763C55.2524 -0.0678004 40.4318 -3.18644 29.7774 3.52542L10.9955 15.4576C5.8732 18.6441 2.32172 23.8644 1.29725 29.7627C0.409384 34.7119 1.16066 39.7966 3.55108 44.2034C1.91193 46.6441 0.81917 49.3559 0.341086 52.2034C-0.751676 58.2373 0.682575 64.4746 4.23405 69.4237C11.7468 80.0678 26.4991 83.1864 37.1535 76.4746L55.9354 64.6102C61.0577 61.4237 64.6092 56.2034 65.6336 50.3051C66.5215 45.3559 65.7702 40.2712 63.3798 35.8644C65.019 33.4237 66.1117 30.7119 66.5898 27.8644C67.7509 21.7627 66.3166 15.5254 62.6969 10.5763Z" fill="#FF3E00"/>
<path d="M27.9336 70.4407C21.8551 72 15.5034 69.6271 11.952 64.5424C9.76643 61.5593 8.94685 57.8305 9.56153 54.1695C9.69813 53.5593 9.83472 53.0169 9.97132 52.4068L10.3128 51.322L11.269 52C13.5228 53.6271 15.9815 54.8474 18.6451 55.661L19.3281 55.8644L19.2598 56.5424C19.1915 57.4915 19.4647 58.5085 20.0111 59.322C21.1038 60.8813 23.0162 61.6271 24.8602 61.1525C25.27 61.0169 25.6798 60.8813 26.0213 60.678L44.7348 48.8136C45.691 48.2034 46.3057 47.322 46.5106 46.2373C46.7155 45.1525 46.4423 44 45.8276 43.1186C44.7348 41.5593 42.8225 40.8814 40.9785 41.3559C40.5687 41.4915 40.1589 41.6271 39.8174 41.8305L32.6461 46.3729C31.4851 47.1186 30.1874 47.661 28.8215 48C22.743 49.5593 16.3913 47.1864 12.8398 42.1017C10.7226 39.1186 9.83472 35.3898 10.5177 31.7288C11.1324 28.2034 13.3179 25.0169 16.3913 23.1186L35.1732 11.2542C36.3342 10.5085 37.6319 9.9661 38.9978 9.55932C45.0763 7.99999 51.428 10.3729 54.9795 15.4576C57.165 18.4407 57.9846 22.1695 57.3699 25.8305C57.2333 26.4407 57.0967 26.983 56.8918 27.5932L56.5503 28.678L55.5942 28C53.3403 26.3729 50.8816 25.1525 48.218 24.339L47.535 24.1356L47.6033 23.4576C47.6716 22.5085 47.3984 21.4915 46.8521 20.678C45.7593 19.1186 43.847 18.4407 42.0029 18.9152C41.5931 19.0508 41.1833 19.1864 40.8419 19.3898L22.1283 31.2542C21.1721 31.8644 20.5575 32.7458 20.3526 33.8305C20.1477 34.9153 20.4209 36.0678 21.0355 36.9491C22.1283 38.5085 24.0406 39.1864 25.8847 38.7119C26.2945 38.5763 26.7042 38.4407 27.0457 38.2373L34.217 33.6949C35.378 32.9491 36.6757 32.4068 38.0417 32C44.1201 30.4407 50.4718 32.8136 54.0233 37.8983C56.2088 40.8814 57.0284 44.6102 56.4137 48.2712C55.799 51.7966 53.6135 54.983 50.5401 56.8813L31.7583 68.7458C30.5972 69.4915 29.2996 70.0339 27.9336 70.4407Z" fill="white"/>
</g>
<defs>
<clipPath id="clip0_704_11164">
<rect width="67" height="80" fill="white"/>
</clipPath>
</defs>
</svg>
