<svg width="80" height="80" viewBox="0 0 80 80" fill="none" xmlns="http://www.w3.org/2000/svg">
<g clip-path="url(#clip0_704_11162)">
<path d="M0 40V0H80V80H0" fill="#007ACC"/>
<path d="M17.54 40.14V43.4H27.94V73H35.32V43.4H45.72V40.2C45.72 38.4 45.72 36.94 45.64 36.9C45.64 36.84 39.3 36.82 31.6 36.82L17.6 36.88V40.16L17.54 40.14ZM64.28 36.8C66.32 37.28 67.88 38.2 69.28 39.66C70.02 40.46 71.12 41.86 71.2 42.22C71.2 42.34 67.74 44.68 65.64 45.98C65.56 46.04 65.24 45.7 64.92 45.18C63.88 43.7 62.82 43.06 61.16 42.94C58.76 42.78 57.16 44.04 57.16 46.14C57.16 46.78 57.28 47.14 57.52 47.66C58.06 48.76 59.06 49.42 62.16 50.78C67.88 53.24 70.36 54.86 71.86 57.18C73.56 59.78 73.94 63.86 72.8 66.92C71.52 70.26 68.4 72.52 63.94 73.26C62.54 73.5 59.34 73.46 57.84 73.2C54.64 72.6 51.58 71 49.7 68.94C48.96 68.14 47.54 66 47.62 65.86L48.38 65.38L51.38 63.64L53.64 62.32L54.16 63.02C54.82 64.06 56.3 65.46 57.16 65.94C59.76 67.28 63.24 67.1 64.96 65.54C65.7 64.86 66.02 64.14 66.02 63.14C66.02 62.22 65.88 61.8 65.42 61.1C64.78 60.22 63.5 59.5 59.9 57.9C55.76 56.14 54 55.02 52.36 53.3C51.42 52.26 50.56 50.64 50.16 49.3C49.86 48.14 49.76 45.3 50.04 44.16C50.9 40.16 53.92 37.36 58.24 36.56C59.64 36.28 62.94 36.4 64.32 36.76L64.28 36.8Z" fill="white"/>
</g>
<defs>
<clipPath id="clip0_704_11162">
<rect width="80" height="80" fill="white"/>
</clipPath>
</defs>
</svg>
