<svg width="20" height="18" viewBox="0 0 20 18" fill="none" xmlns="http://www.w3.org/2000/svg">
<path d="M6.2918 17.125C13.8371 17.125 17.9652 10.8723 17.9652 5.45155C17.9652 5.27577 17.9613 5.09608 17.9535 4.9203C18.7566 4.33955 19.4496 3.62021 20 2.79608C19.2521 3.12883 18.458 3.34615 17.6449 3.44061C18.5011 2.92742 19.1421 2.12123 19.4492 1.17147C18.6438 1.6488 17.763 1.98551 16.8445 2.16718C16.2257 1.50963 15.4075 1.07426 14.5164 0.928376C13.6253 0.782488 12.711 0.934209 11.9148 1.36008C11.1186 1.78595 10.4848 2.46225 10.1115 3.28443C9.73825 4.1066 9.64619 5.02885 9.84961 5.90858C8.21874 5.82674 6.62328 5.40309 5.16665 4.66508C3.71002 3.92708 2.42474 2.8912 1.39414 1.6246C0.870333 2.5277 0.710047 3.59637 0.945859 4.61341C1.18167 5.63045 1.79589 6.51954 2.66367 7.09999C2.01219 7.0793 1.37498 6.9039 0.804688 6.58827V6.63905C0.804104 7.58679 1.13175 8.50549 1.73192 9.23897C2.3321 9.97246 3.16777 10.4755 4.09687 10.6625C3.49338 10.8276 2.85999 10.8517 2.2457 10.7328C2.50788 11.5479 3.01798 12.2607 3.70481 12.7719C4.39164 13.2831 5.22093 13.5672 6.07695 13.5844C4.62369 14.7259 2.82848 15.3451 0.980469 15.3422C0.652739 15.3417 0.325333 15.3216 0 15.282C1.87738 16.4865 4.06128 17.1262 6.2918 17.125Z" fill="#98A2B3"/>
</svg>
