<svg width="80" height="80" viewBox="0 0 80 80" fill="none" xmlns="http://www.w3.org/2000/svg">
<path d="M39.9998 0L75.3532 20V60L39.9998 80L4.64648 60V20L39.9998 0Z" fill="white"/>
<path d="M69.0404 58.62L41.1671 74.3867V62.1067L58.5338 52.5533L69.0404 58.62ZM70.9471 56.8933V23.92L60.7471 29.8067V51L70.9471 56.8933ZM10.8471 58.62L38.7204 74.3867V62.1067L21.3538 52.5533L10.8471 58.62ZM8.94043 56.8933V23.92L19.1404 29.8067V51L8.94043 56.8933ZM10.1338 21.7867L38.7204 5.61334V17.4867L20.4071 27.56L20.2671 27.64L10.1338 21.7867ZM69.7538 21.7867L41.1671 5.61334V17.4867L59.4804 27.56L59.6204 27.64L69.7538 21.7867Z" fill="#8ED6FB"/>
<path d="M38.7202 59.3133L21.5869 49.8933V31.2267L38.7202 41.12V59.3133ZM41.1669 59.3133L58.3002 49.8933V31.2267L41.1669 41.12V59.3133ZM22.7469 29.0667L39.9469 19.6067L57.1469 29.0667L39.9469 39L22.7469 29.0667Z" fill="#1C78C0"/>
</svg>
